<svg width="257" height="31" viewBox="0 0 257 31" fill="none" xmlns="http://www.w3.org/2000/svg">
<path d="M16.7916 23H13.3356L2.99963 11.416V23H0.119625V0.151999H2.99963V11.224L13.0796 0.151999H16.3436L6.42362 11.256L16.7916 23ZM26.1409 5.528C27.6129 5.528 28.8715 5.848 29.9169 6.488C30.9835 7.128 31.7942 8.03467 32.3489 9.208C32.9249 10.36 33.2129 11.7147 33.2129 13.272V14.968H21.4689C21.5115 16.9093 22.0022 18.392 22.9409 19.416C23.9009 20.4187 25.2342 20.92 26.9409 20.92C28.0289 20.92 28.9889 20.824 29.8209 20.632C30.6742 20.4187 31.5489 20.12 32.4449 19.736V22.2C31.5702 22.584 30.7062 22.8613 29.8529 23.032C28.9995 23.224 27.9862 23.32 26.8129 23.32C25.1915 23.32 23.7515 22.9893 22.4929 22.328C21.2555 21.6667 20.2849 20.6853 19.5809 19.384C18.8982 18.0613 18.5569 16.4507 18.5569 14.552C18.5569 12.6747 18.8662 11.064 19.4849 9.72C20.1249 8.376 21.0102 7.34133 22.1409 6.616C23.2929 5.89067 24.6262 5.528 26.1409 5.528ZM26.1089 7.832C24.7649 7.832 23.6982 8.26933 22.9089 9.144C22.1409 9.99733 21.6822 11.192 21.5329 12.728H30.2689C30.2689 11.7467 30.1195 10.8933 29.8209 10.168C29.5222 9.44267 29.0635 8.87733 28.4449 8.472C27.8475 8.04533 27.0689 7.832 26.1089 7.832ZM47.7234 5.848H50.7954L43.4674 14.104L51.4034 23H48.1394L40.3954 14.296V23H37.5794V5.848H40.3954V14.168L47.7234 5.848ZM60.7719 23.32C59.2572 23.32 57.9025 23.0107 56.7079 22.392C55.5345 21.7733 54.6065 20.8133 53.9239 19.512C53.2625 18.2107 52.9319 16.5467 52.9319 14.52C52.9319 12.408 53.2839 10.6907 53.9879 9.368C54.6919 8.04533 55.6412 7.07467 56.8359 6.456C58.0519 5.83733 59.4279 5.528 60.9639 5.528C61.8385 5.528 62.6812 5.624 63.4919 5.816C64.3025 5.98667 64.9639 6.2 65.4759 6.456L64.6119 8.792C64.0999 8.6 63.5025 8.41867 62.8199 8.248C62.1372 8.07733 61.4972 7.992 60.8999 7.992C59.7479 7.992 58.7985 8.23733 58.0519 8.728C57.3052 9.21867 56.7505 9.944 56.3879 10.904C56.0252 11.864 55.8439 13.0587 55.8439 14.488C55.8439 15.8533 56.0252 17.016 56.3879 17.976C56.7505 18.936 57.2945 19.6613 58.0199 20.152C58.7452 20.6427 59.6519 20.888 60.7399 20.888C61.6785 20.888 62.4999 20.792 63.2039 20.6C63.9292 20.408 64.5905 20.1733 65.1879 19.896V22.392C64.6119 22.6907 63.9719 22.9147 63.2679 23.064C62.5852 23.2347 61.7532 23.32 60.7719 23.32ZM83.5969 23.288C82.2315 23.288 80.9835 23.0213 79.8529 22.488C78.7435 21.9547 77.8582 21.208 77.1969 20.248C76.5569 19.288 76.2369 18.1787 76.2369 16.92C76.2369 15.512 76.6102 14.264 77.3569 13.176C78.1035 12.0667 79.2022 11.0853 80.6529 10.232C79.8209 9.48533 79.1915 8.74933 78.7649 8.024C78.3595 7.27733 78.1569 6.456 78.1569 5.56C78.1569 4.04533 78.6049 2.79733 79.5009 1.816C80.3969 0.813332 81.6662 0.311998 83.3089 0.311998C84.3329 0.311998 85.2289 0.546665 85.9969 1.016C86.7862 1.464 87.3942 2.09333 87.8209 2.904C88.2475 3.69333 88.4609 4.57867 88.4609 5.56C88.4609 6.52 88.1729 7.42667 87.5969 8.28C87.0422 9.13333 86.1462 10.0187 84.9089 10.936L90.8929 16.952C91.9809 15.544 92.5249 14.136 92.5249 12.728C92.5249 12.344 92.5035 12.056 92.4609 11.864C94.2955 11.864 95.2129 12.6 95.2129 14.072C95.2129 14.7973 95.0102 15.5227 94.6049 16.248C94.2209 16.9733 93.6235 17.816 92.8129 18.776L96.2369 22.136C96.0449 22.4987 95.7675 22.776 95.4049 22.968C95.0635 23.16 94.6902 23.256 94.2849 23.256C93.7089 23.256 93.2075 23.064 92.7809 22.68L90.8929 20.856C89.7409 21.7093 88.5995 22.328 87.4689 22.712C86.3382 23.096 85.0475 23.288 83.5969 23.288ZM83.2449 9.048C84.0555 8.45067 84.6315 7.88533 84.9729 7.352C85.3142 6.79733 85.4849 6.2 85.4849 5.56C85.4849 4.74933 85.3035 4.10933 84.9409 3.64C84.5995 3.14933 84.0555 2.904 83.3089 2.904C82.5835 2.904 82.0395 3.14933 81.6769 3.64C81.3142 4.13067 81.1329 4.77067 81.1329 5.56C81.1329 6.22133 81.2929 6.808 81.6129 7.32C81.9329 7.81067 82.4769 8.38667 83.2449 9.048ZM83.8849 20.632C85.8475 20.632 87.5542 20.024 89.0049 18.808L82.4449 12.184C81.3782 12.7813 80.5782 13.464 80.0449 14.232C79.5115 15 79.2449 15.896 79.2449 16.92C79.2449 18.1573 79.6715 19.0853 80.5249 19.704C81.3782 20.3227 82.4982 20.632 83.8849 20.632ZM125.698 23H122.242L111.906 11.416V23H109.026V0.151999H111.906V11.224L121.986 0.151999H125.25L115.33 11.256L125.698 23ZM136.583 5.528C138.695 5.528 140.391 6.264 141.671 7.736C142.972 9.208 143.623 11.4267 143.623 14.392C143.623 16.3333 143.324 17.976 142.727 19.32C142.151 20.6427 141.33 21.6453 140.263 22.328C139.218 22.9893 137.98 23.32 136.551 23.32C135.676 23.32 134.898 23.2027 134.215 22.968C133.532 22.7333 132.946 22.4347 132.455 22.072C131.986 21.688 131.58 21.272 131.239 20.824H131.047C131.09 21.1867 131.132 21.6453 131.175 22.2C131.218 22.7547 131.239 23.2347 131.239 23.64V30.68H128.423V5.848H130.727L131.111 8.184H131.239C131.58 7.69333 131.986 7.24533 132.455 6.84C132.946 6.43467 133.522 6.11467 134.183 5.88C134.866 5.64533 135.666 5.528 136.583 5.528ZM136.071 7.896C134.919 7.896 133.991 8.12 133.287 8.568C132.583 8.99467 132.071 9.64533 131.751 10.52C131.431 11.3947 131.26 12.504 131.239 13.848V14.392C131.239 15.8 131.388 16.9947 131.687 17.976C131.986 18.9573 132.487 19.704 133.191 20.216C133.916 20.728 134.898 20.984 136.135 20.984C137.18 20.984 138.034 20.696 138.695 20.12C139.378 19.544 139.879 18.7653 140.199 17.784C140.54 16.7813 140.711 15.64 140.711 14.36C140.711 12.3973 140.327 10.8293 139.559 9.656C138.812 8.48267 137.65 7.896 136.071 7.896ZM154.735 5.528C156.207 5.528 157.465 5.848 158.511 6.488C159.577 7.128 160.388 8.03467 160.943 9.208C161.519 10.36 161.807 11.7147 161.807 13.272V14.968H150.063C150.105 16.9093 150.596 18.392 151.535 19.416C152.495 20.4187 153.828 20.92 155.535 20.92C156.623 20.92 157.583 20.824 158.415 20.632C159.268 20.4187 160.143 20.12 161.039 19.736V22.2C160.164 22.584 159.3 22.8613 158.447 23.032C157.593 23.224 156.58 23.32 155.407 23.32C153.785 23.32 152.345 22.9893 151.087 22.328C149.849 21.6667 148.879 20.6853 148.175 19.384C147.492 18.0613 147.151 16.4507 147.151 14.552C147.151 12.6747 147.46 11.064 148.079 9.72C148.719 8.376 149.604 7.34133 150.735 6.616C151.887 5.89067 153.22 5.528 154.735 5.528ZM154.703 7.832C153.359 7.832 152.292 8.26933 151.503 9.144C150.735 9.99733 150.276 11.192 150.127 12.728H158.863C158.863 11.7467 158.713 10.8933 158.415 10.168C158.116 9.44267 157.657 8.87733 157.039 8.472C156.441 8.04533 155.663 7.832 154.703 7.832ZM168.989 5.848V12.984H178.301V5.848H181.117V23H178.301V15.352H168.989V23H166.173V5.848H168.989ZM199.284 5.848V20.632H201.78V28.952H199.06V23H187.124V28.952H184.436V20.632H185.812C186.793 19.2667 187.604 17.784 188.244 16.184C188.905 14.5627 189.396 12.8773 189.716 11.128C190.057 9.35733 190.239 7.59733 190.26 5.848H199.284ZM192.756 8.056C192.671 9.50667 192.447 11.0107 192.084 12.568C191.721 14.104 191.252 15.576 190.676 16.984C190.121 18.392 189.471 19.608 188.724 20.632H196.564V8.056H192.756ZM211.766 5.528C213.238 5.528 214.497 5.848 215.542 6.488C216.609 7.128 217.419 8.03467 217.974 9.208C218.55 10.36 218.838 11.7147 218.838 13.272V14.968H207.094C207.137 16.9093 207.627 18.392 208.566 19.416C209.526 20.4187 210.859 20.92 212.566 20.92C213.654 20.92 214.614 20.824 215.446 20.632C216.299 20.4187 217.174 20.12 218.07 19.736V22.2C217.195 22.584 216.331 22.8613 215.478 23.032C214.625 23.224 213.611 23.32 212.438 23.32C210.817 23.32 209.377 22.9893 208.118 22.328C206.881 21.6667 205.91 20.6853 205.206 19.384C204.523 18.0613 204.182 16.4507 204.182 14.552C204.182 12.6747 204.491 11.064 205.11 9.72C205.75 8.376 206.635 7.34133 207.766 6.616C208.918 5.89067 210.251 5.528 211.766 5.528ZM211.734 7.832C210.39 7.832 209.323 8.26933 208.534 9.144C207.766 9.99733 207.307 11.192 207.158 12.728H215.894C215.894 11.7467 215.745 10.8933 215.446 10.168C215.147 9.44267 214.689 8.87733 214.07 8.472C213.473 8.04533 212.694 7.832 211.734 7.832ZM236.26 23H233.412V8.184H228.356C228.143 10.8933 227.876 13.208 227.556 15.128C227.236 17.0267 226.831 18.5733 226.34 19.768C225.85 20.9627 225.263 21.8373 224.58 22.392C223.898 22.9467 223.098 23.224 222.18 23.224C221.903 23.224 221.626 23.2027 221.348 23.16C221.092 23.1387 220.879 23.0853 220.708 23V20.888C220.836 20.9307 220.975 20.9627 221.124 20.984C221.274 21.0053 221.423 21.016 221.572 21.016C222.042 21.016 222.468 20.824 222.852 20.44C223.236 20.056 223.578 19.4693 223.876 18.68C224.196 17.8907 224.484 16.8987 224.74 15.704C224.996 14.488 225.22 13.0587 225.412 11.416C225.604 9.77333 225.775 7.91733 225.924 5.848H236.26V23ZM249.608 12.888C251.102 12.888 252.339 13.0693 253.32 13.432C254.302 13.7947 255.038 14.3387 255.528 15.064C256.04 15.768 256.296 16.664 256.296 17.752C256.296 18.8187 256.051 19.7467 255.56 20.536C255.091 21.3253 254.355 21.9333 253.352 22.36C252.35 22.7867 251.059 23 249.48 23H241.704V5.848H244.52V12.888H249.608ZM253.48 17.912C253.48 16.8667 253.107 16.1627 252.36 15.8C251.635 15.416 250.611 15.224 249.288 15.224H244.52V20.728H249.352C250.547 20.728 251.528 20.5147 252.296 20.088C253.086 19.6613 253.48 18.936 253.48 17.912Z" fill="#350707"/>
</svg>
